<?xml version="1.0" encoding="utf-8"?>
<!-- Generator: Adobe Illustrator 16.0.0, SVG Export Plug-In . SVG Version: 6.00 Build 0)  -->
<!DOCTYPE svg PUBLIC "-//W3C//DTD SVG 1.1//EN" "http://www.w3.org/Graphics/SVG/1.1/DTD/svg11.dtd">
<svg version="1.1" id="Layer_1" xmlns="http://www.w3.org/2000/svg" xmlns:xlink="http://www.w3.org/1999/xlink" x="0px" y="0px"
	 width="563.655px" height="482.232px" viewBox="0 0 563.655 482.232" enable-background="new 0 0 563.655 482.232"
	 xml:space="preserve">
<g>
	<g>
		<g>
			<path fill="#F1F2F2" d="M15.319,146.959H8.297l-2.372,4.835h-4.45l11.611-22.421h4.527l2.602,22.421H15.75L15.319,146.959z
				 M10.022,143.433h4.974l-0.754-8.408l-0.092-0.016L10.022,143.433z"/>
			<path fill="#F1F2F2" d="M10.271,210.374l1.771,16.508l0.092,0.015l8.408-16.523h5.79l-4.481,22.421h-4.435l1.34-6.683
				l2.294-9.424l-0.077-0.031l-8.577,16.138H9.424L7.33,216.734H7.238l-1.463,9.378l-1.34,6.683H0l4.481-22.421H10.271z"/>
			<path fill="#F1F2F2" d="M36.751,232.795h-4.435l4.481-22.421h4.435L36.751,232.795z"/>
			<path fill="#F1F2F2" d="M64.232,232.795h-4.435l-5.066-14.906h-0.092l-2.972,14.906h-4.435l4.481-22.421h4.435l5.051,14.891
				h0.092l2.987-14.891h4.435L64.232,232.795z"/>
			<path fill="#F1F2F2" d="M74.467,232.795l4.481-22.421h6.699c2.423,0,4.404,0.919,5.944,2.756c1.54,1.838,2.048,4.091,1.525,6.76
				l-0.755,3.711c-0.595,2.957-1.776,5.228-3.542,6.814c-1.766,1.586-3.937,2.379-6.514,2.379H74.467z M82.69,213.839l-3.095,15.491
				h3.172c1.324,0,2.422-0.513,3.295-1.538c0.872-1.025,1.488-2.426,1.848-4.2l0.754-3.739c0.359-1.815,0.169-3.271-0.57-4.369
				c-0.739-1.097-1.863-1.646-3.372-1.646H82.69z"/>
			<path fill="#F1F2F2" d="M12.196,308.35c0.195-1.014,0.049-1.779-0.439-2.297c-0.488-0.517-1.45-1.073-2.887-1.667
				c-2.351-0.811-4.071-1.799-5.159-2.964c-1.088-1.165-1.442-2.687-1.063-4.566c0.37-1.858,1.319-3.29,2.849-4.296
				c1.53-1.006,3.367-1.509,5.513-1.509c2.289,0,4.078,0.616,5.366,1.848c1.289,1.232,1.702,2.905,1.24,5.02l-0.046,0.092h-4.296
				c0.205-1.057,0.036-1.904-0.508-2.541c-0.544-0.637-1.36-0.955-2.449-0.955c-0.749,0-1.439,0.224-2.071,0.67
				c-0.631,0.447-1.014,0.993-1.147,1.64c-0.206,0.996-0.051,1.728,0.462,2.194c0.513,0.467,1.643,1.04,3.388,1.717
				c2.207,0.791,3.803,1.763,4.789,2.918c0.985,1.155,1.283,2.713,0.893,4.673c-0.39,1.94-1.342,3.391-2.856,4.351
				c-1.515,0.96-3.375,1.439-5.583,1.439c-2.248,0-4.145-0.559-5.69-1.678s-2.056-2.849-1.532-5.189l0.031-0.093h4.312
				c-0.267,1.319-0.028,2.231,0.716,2.737c0.745,0.506,1.696,0.759,2.857,0.759c0.749,0,1.452-0.217,2.109-0.652
				C11.652,309.565,12.052,309.015,12.196,308.35z"/>
			<path fill="#F1F2F2" d="M36.69,308.959h-7.022l-2.372,4.835h-4.45l11.611-22.421h4.527l2.603,22.421h-4.466L36.69,308.959z
				 M31.393,305.433h4.974l-0.754-8.408l-0.093-0.016L31.393,305.433z"/>
			<path fill="#F1F2F2" d="M66.928,313.795h-4.435l-5.066-14.906h-0.092l-2.972,14.906h-4.435l4.481-22.421h4.435l5.051,14.891
				h0.092l2.987-14.891h4.435L66.928,313.795z"/>
			<path fill="#F1F2F2" d="M93.885,310.73c-0.821,0.883-1.956,1.668-3.403,2.356c-1.448,0.688-3.183,1.032-5.205,1.032
				c-2.392,0-4.271-0.865-5.636-2.595c-1.365-1.729-1.781-3.929-1.247-6.598l0.939-4.682c0.575-2.885,1.791-5.138,3.649-6.76
				c1.858-1.622,4.04-2.433,6.544-2.433c2.423,0,4.209,0.665,5.359,1.994s1.612,3.077,1.386,5.243l-0.046,0.092h-4.188
				c0.062-1.232-0.136-2.184-0.593-2.856c-0.457-0.672-1.286-1.009-2.487-1.009c-1.139,0-2.209,0.542-3.21,1.624
				s-1.666,2.438-1.994,4.069l-0.939,4.708c-0.37,1.805-0.27,3.213,0.3,4.223s1.522,1.515,2.856,1.515
				c0.862,0,1.609-0.11,2.241-0.33c0.631-0.22,1.122-0.483,1.471-0.791l0.816-4.053h-3.496l0.616-3.111h7.93L93.885,310.73z"/>
		</g>
	</g>
	<g>
		<g>
			<path fill="#A6A6FF" d="M557.003,145.543h-9.486l-3.403,6.252h-1.833l12.412-22.421h1.663l3.388,22.421h-1.848L557.003,145.543z
				 M548.41,143.895h8.361l-1.725-12.026l-0.092-0.016L548.41,143.895z"/>
			<path fill="#A6A6FF" d="M456.786,210.374l3.634,19.726l0.093,0.016l11.58-19.742h2.34l-4.481,22.421h-1.771l1.987-9.901
				l2.079-9.702l-0.092-0.031l-11.596,19.634h-1.232l-3.757-19.542h-0.092l-1.755,9.64l-1.986,9.901h-1.771l4.481-22.421H456.786z"
				/>
			<path fill="#A6A6FF" d="M489.869,226.543h-9.486l-3.403,6.252h-1.833l12.412-22.421h1.663l3.388,22.421h-1.848L489.869,226.543z
				 M481.276,224.895h8.362l-1.725-12.026l-0.092-0.016L481.276,224.895z M494.243,204.738c-0.154,0.935-0.539,1.691-1.155,2.271
				c-0.616,0.58-1.325,0.87-2.125,0.87c-0.657,0-1.316-0.282-1.979-0.847c-0.662-0.564-1.255-0.847-1.779-0.847
				c-0.431,0-0.832,0.182-1.201,0.546c-0.369,0.365-0.595,0.819-0.677,1.363l-1.125-0.277c0.144-0.924,0.519-1.676,1.125-2.256
				c0.605-0.58,1.309-0.87,2.109-0.87c0.585,0,1.232,0.282,1.94,0.847c0.708,0.565,1.319,0.847,1.833,0.847
				c0.421,0,0.821-0.185,1.201-0.555s0.616-0.836,0.708-1.401L494.243,204.738z"/>
			<path fill="#A6A6FF" d="M511.465,221.938h-10.009l-1.863,9.286h11.472l-0.308,1.571h-13.243l4.481-22.421h13.167l-0.308,1.571
				h-11.411l-1.679,8.423h10.009L511.465,221.938z"/>
			<path fill="#A6A6FF" d="M525.028,232.795l4.481-22.421h5.513c2.433,0,4.417,0.947,5.952,2.841
				c1.535,1.895,2.025,4.227,1.471,6.999l-0.57,2.895c-0.626,3.09-1.838,5.477-3.634,7.161s-3.983,2.525-6.56,2.525H525.028z
				 M530.957,211.945l-3.85,19.279h4.881c1.878,0,3.578-0.761,5.097-2.285c1.519-1.523,2.52-3.47,3.003-5.839l0.585-2.939
				c0.493-2.462,0.154-4.447-1.017-5.955c-1.17-1.508-2.818-2.262-4.943-2.262H530.957z"/>
			<path fill="#A6A6FF" d="M559.959,221.938H549.95l-1.863,9.286h11.472l-0.308,1.571h-13.243l4.481-22.421h13.166l-0.308,1.571
				h-11.411l-1.679,8.423h10.01L559.959,221.938z"/>
			<path fill="#A6A6FF" d="M453.798,308.904c0.277-1.373,0.08-2.439-0.593-3.197s-2.03-1.532-4.073-2.321
				c-2.177-0.791-3.732-1.688-4.666-2.695c-0.935-1.006-1.207-2.469-0.816-4.389c0.339-1.684,1.173-2.98,2.502-3.888
				c1.33-0.909,2.928-1.363,4.797-1.363c2.053,0,3.657,0.603,4.812,1.809c1.155,1.207,1.507,2.836,1.055,4.889l-0.031,0.077h-1.679
				c0.318-1.581,0.069-2.844-0.747-3.788c-0.816-0.944-2.056-1.417-3.719-1.417c-1.273,0-2.41,0.363-3.411,1.089
				s-1.599,1.584-1.794,2.573c-0.288,1.401-0.121,2.472,0.5,3.214c0.621,0.741,1.979,1.514,4.073,2.317
				c2.176,0.799,3.745,1.716,4.705,2.75c0.96,1.034,1.255,2.478,0.885,4.332c-0.349,1.731-1.222,3.034-2.618,3.91
				c-1.396,0.875-3.095,1.313-5.097,1.313c-2.033,0-3.74-0.544-5.12-1.632c-1.381-1.088-1.82-2.767-1.317-5.035l0.046-0.093h1.648
				c-0.391,1.935-0.064,3.283,0.978,4.046s2.399,1.144,4.073,1.144c1.314,0,2.525-0.356,3.634-1.068
				C452.936,310.767,453.593,309.909,453.798,308.904z"/>
			<path fill="#A6A6FF" d="M472.592,307.543h-9.486l-3.403,6.252h-1.833l12.412-22.421h1.663l3.388,22.421h-1.848L472.592,307.543z
				 M463.999,305.895h8.361l-1.725-12.026l-0.092-0.016L463.999,305.895z"/>
			<path fill="#A6A6FF" d="M495.619,313.795h-1.786l-7.884-19.172h-0.092l-3.834,19.172h-1.787l4.481-22.421h1.786l7.884,19.141
				h0.092l3.834-19.141h1.786L495.619,313.795z"/>
			<path fill="#A6A6FF" d="M518.231,311.131c-0.626,0.739-1.62,1.422-2.979,2.048c-1.36,0.626-2.98,0.939-4.858,0.939
				c-2.279,0-4.058-0.901-5.336-2.702c-1.278-1.802-1.635-4.089-1.07-6.86l0.816-4.112c0.595-2.957,1.784-5.261,3.565-6.914
				c1.781-1.653,3.873-2.479,6.275-2.479c2.094,0,3.693,0.613,4.797,1.84c1.104,1.227,1.568,2.785,1.394,4.674l-0.046,0.092h-1.663
				c0.052-1.499-0.287-2.712-1.016-3.642c-0.729-0.929-1.986-1.394-3.773-1.394c-1.725,0-3.336,0.742-4.835,2.224
				c-1.499,1.482-2.464,3.336-2.895,5.563l-0.832,4.139c-0.503,2.493-0.3,4.45,0.608,5.87c0.908,1.421,2.348,2.131,4.319,2.131
				c1.263,0,2.443-0.21,3.542-0.63s1.869-0.871,2.31-1.353l1.17-5.84h-5.482l0.308-1.571h7.269L518.231,311.131z"/>
			<path fill="#A6A6FF" d="M543.692,291.374l-3.034,15.199c-0.523,2.608-1.589,4.517-3.195,5.729
				c-1.607,1.211-3.56,1.817-5.859,1.817c-2.074,0-3.701-0.657-4.881-1.971c-1.181-1.314-1.525-3.172-1.032-5.575l3.033-15.199
				h1.787l-3.034,15.188c-0.411,2.042-0.203,3.55,0.624,4.524c0.827,0.975,2.097,1.461,3.812,1.461c1.611,0,3.082-0.525,4.412-1.577
				c1.33-1.051,2.184-2.521,2.564-4.409l3.034-15.188H543.692z"/>
			<path fill="#A6A6FF" d="M559.959,302.938H549.95l-1.863,9.286h11.472l-0.308,1.571h-13.243l4.481-22.421h13.166l-0.308,1.571
				h-11.411l-1.679,8.423h10.01L559.959,302.938z"/>
		</g>
	</g>
	<g>
		<rect x="277.683" fill="#A6A6FF" width="2" height="482.232"/>
	</g>
</g>
</svg>
