<?xml version="1.0" encoding="utf-8"?>
<!-- Generator: Adobe Illustrator 16.0.0, SVG Export Plug-In . SVG Version: 6.00 Build 0)  -->
<!DOCTYPE svg PUBLIC "-//W3C//DTD SVG 1.1//EN" "http://www.w3.org/Graphics/SVG/1.1/DTD/svg11.dtd">
<svg version="1.1" xmlns="http://www.w3.org/2000/svg" xmlns:xlink="http://www.w3.org/1999/xlink" x="0px" y="0px"
	 width="18.351px" height="18.352px" viewBox="0 0 18.351 18.352" enable-background="new 0 0 18.351 18.352" xml:space="preserve">
<g id="Layer_1">
</g>
<g id="Isolation_Mode">
	<g>
		<g>
			<path fill="#B6B6FC" d="M9.176,1.652c2.45,0,2.74,0.01,3.708,0.054c0.895,0.042,1.381,0.191,1.703,0.316
				c0.398,0.148,0.76,0.382,1.056,0.687c0.304,0.296,0.538,0.655,0.687,1.055c0.125,0.323,0.274,0.81,0.315,1.704
				c0.044,0.968,0.054,1.257,0.054,3.708c0,2.449-0.01,2.74-0.054,3.708c-0.041,0.895-0.19,1.38-0.315,1.703
				c-0.31,0.8-0.941,1.433-1.742,1.741c-0.322,0.127-0.809,0.274-1.703,0.315c-0.968,0.044-1.258,0.055-3.708,0.055
				s-2.74-0.011-3.708-0.055c-0.895-0.041-1.38-0.188-1.703-0.315c-0.399-0.147-0.76-0.381-1.056-0.687
				c-0.305-0.296-0.539-0.656-0.686-1.055c-0.126-0.323-0.276-0.809-0.317-1.703c-0.043-0.968-0.053-1.259-0.053-3.708
				c0-2.451,0.01-2.74,0.053-3.708c0.041-0.895,0.191-1.381,0.317-1.704C2.17,3.364,2.404,3.005,2.709,2.709
				c0.296-0.305,0.656-0.538,1.056-0.687c0.323-0.125,0.809-0.275,1.703-0.316C6.436,1.662,6.726,1.652,9.176,1.652 M9.176,0
				C6.684,0,6.371,0.011,5.394,0.056C4.417,0.101,3.749,0.254,3.165,0.482C2.554,0.712,1.999,1.073,1.54,1.54
				C1.073,1.998,0.712,2.553,0.481,3.165C0.255,3.749,0.101,4.416,0.056,5.393C0.011,6.371,0,6.683,0,9.176
				c0,2.491,0.011,2.805,0.056,3.782c0.045,0.977,0.199,1.645,0.426,2.228c0.23,0.613,0.592,1.166,1.059,1.625
				c0.459,0.467,1.014,0.828,1.625,1.058c0.584,0.227,1.252,0.383,2.229,0.429c0.979,0.044,1.29,0.055,3.782,0.055
				c2.491,0,2.804-0.011,3.783-0.055c0.976-0.046,1.644-0.202,2.228-0.429c1.232-0.476,2.207-1.45,2.683-2.683
				c0.228-0.583,0.382-1.251,0.427-2.228c0.045-0.978,0.055-1.291,0.055-3.782c0-2.493-0.01-2.805-0.055-3.783
				c-0.045-0.977-0.199-1.644-0.427-2.228c-0.229-0.612-0.591-1.167-1.058-1.625c-0.459-0.467-1.014-0.828-1.625-1.06
				c-0.584-0.227-1.252-0.38-2.228-0.425C11.979,0.011,11.667,0,9.176,0L9.176,0L9.176,0z"/>
			<path fill="#B6B6FC" d="M9.176,4.464c-2.603,0-4.712,2.109-4.712,4.712c0,2.602,2.109,4.712,4.712,4.712
				c2.602,0,4.712-2.11,4.712-4.712l0,0C13.888,6.573,11.777,4.464,9.176,4.464z M9.176,12.234c-1.689,0-3.059-1.369-3.059-3.059
				s1.37-3.059,3.059-3.059c1.689,0,3.059,1.369,3.059,3.059S10.864,12.234,9.176,12.234z"/>
			<circle fill="#B6B6FC" cx="14.073" cy="4.278" r="1.101"/>
		</g>
	</g>
</g>
</svg>
