<?xml version="1.0" encoding="utf-8"?>
<!-- Generator: Adobe Illustrator 16.0.0, SVG Export Plug-In . SVG Version: 6.00 Build 0)  -->
<!DOCTYPE svg PUBLIC "-//W3C//DTD SVG 1.1//EN" "http://www.w3.org/Graphics/SVG/1.1/DTD/svg11.dtd">
<svg version="1.1" xmlns="http://www.w3.org/2000/svg" xmlns:xlink="http://www.w3.org/1999/xlink" x="0px" y="0px"
	 width="22.604px" height="18.37px" viewBox="0 0 22.604 18.37" enable-background="new 0 0 22.604 18.37" xml:space="preserve">
<g id="Layer_1">
</g>
<g id="Isolation_Mode">
	<g>
		<g>
			<path fill="#B6B6FC" d="M22.604,2.173c-0.831,0.37-1.725,0.619-2.663,0.732c0.958-0.575,1.692-1.484,2.038-2.566
				c-0.896,0.531-1.887,0.917-2.944,1.124C18.189,0.563,16.983,0,15.65,0c-2.562,0-4.638,2.075-4.638,4.637
				c0,0.363,0.041,0.716,0.12,1.055C7.278,5.5,3.861,3.654,1.574,0.849C1.175,1.533,0.947,2.329,0.947,3.18
				c0,1.609,0.818,3.028,2.063,3.86C2.249,7.015,1.534,6.806,0.908,6.46c0,0.019,0,0.037,0,0.058c0,2.247,1.599,4.122,3.721,4.548
				c-0.391,0.104-0.799,0.162-1.223,0.162c-0.298,0-0.589-0.03-0.872-0.084c0.591,1.842,2.302,3.184,4.331,3.222
				c-1.587,1.244-3.586,1.984-5.759,1.984c-0.374,0-0.743-0.021-1.106-0.066c2.053,1.317,4.489,2.086,7.109,2.086
				c8.529,0,13.194-7.066,13.194-13.196c0-0.2-0.005-0.401-0.013-0.601C21.195,3.92,21.982,3.103,22.604,2.173z"/>
		</g>
	</g>
</g>
</svg>
