<?xml version="1.0" encoding="utf-8"?>
<!-- Generator: Adobe Illustrator 16.0.0, SVG Export Plug-In . SVG Version: 6.00 Build 0)  -->
<!DOCTYPE svg PUBLIC "-//W3C//DTD SVG 1.1//EN" "http://www.w3.org/Graphics/SVG/1.1/DTD/svg11.dtd">
<svg version="1.1" id="Layer_1" xmlns="http://www.w3.org/2000/svg" xmlns:xlink="http://www.w3.org/1999/xlink" x="0px" y="0px"
	 width="210.646px" height="88.46px" viewBox="0 0 210.646 88.46" enable-background="new 0 0 210.646 88.46" xml:space="preserve">
<g>
	<path d="M158.234,2.544c-4.193,1.54-27.588,9.122-49.732,9.122c-1.061,0-5.299,0-6.357,0c-22.145,0-45.539-7.582-49.732-9.122
		C22.332-8.5,0,18.411,0,44.729c0,31.438,24.391,50.481,52.412,41.506c26.754-8.569,45.498-10.293,52.76-10.293
		c0.047,0,0.094,0.002,0.141,0.002v0c0.004,0,0.006,0,0.01,0s0.008,0,0.012,0v0c0.047,0,0.092-0.002,0.139-0.002
		c7.264,0,26.006,1.724,52.762,10.293c28.021,8.975,52.412-10.069,52.412-41.506C210.646,18.411,188.313-8.5,158.234,2.544z
		 M52.266,73.294c-0.072,0.019-0.146,0.038-0.213,0.056c-23.266,6.421-32.994-12.764-32.994-28.637
		c0-15.873,12.727-28.55,28.422-28.742c1.963-0.023,4.723,0.192,9.078,1.369c2.184,0.688,4.387,1.334,6.609,1.931v17.801
		c-2.418-2.912-5.676-4.702-9.262-4.702c-7.459,0-13.506,7.727-13.506,17.255s6.047,17.254,13.506,17.254
		c3.586,0,6.844-1.79,9.262-4.7v7.566C59.479,70.803,55.844,71.987,52.266,73.294z M73.869,67.076V21.754
		c4.506,0.884,9.078,1.579,13.705,2.078c-0.367,1.711-1.07,5.518-0.855,8.932c5.34-8.476,13.527-7.001,19.59-6.641v10.129
		c-13.283-1.438-21.303,8.277-21.303,17.781c0,4.176,1.818,7.739,4.486,10.51C84.201,65.135,78.992,65.985,73.869,67.076z
		 M124.613,64.431c-0.01-6.127-0.068-11.339-0.068-19.749c0-8.381-0.338-16.981-5.611-20.507c5.512-0.472,10.943-1.22,16.281-2.233
		v43.963C131.717,65.301,128.184,64.808,124.613,64.431z M161.355,72.671c-0.133-0.029-0.289-0.058-0.459-0.087
		c-1.176-0.412-2.361-0.812-3.553-1.199l0.105,0.002c0,0-12.689-3.695-10.994-20.871c1.604-16.277,17.859-15.778,17.859-15.778
		l0.84-12.542c0,0-13.705-2.088-17.877,9.582l0.389-12.718c4.354-1.195,8.639-2.566,12.84-4.11
		c19.25-5.729,31.08,11.745,31.08,27.765C191.586,58.942,182.873,77.381,161.355,72.671z"/>
	<path fill="#FFFFFF" d="M53.906,66.879c-7.459,0-13.506-7.726-13.506-17.254S46.447,32.37,53.906,32.37
		c3.586,0,6.844,1.79,9.262,4.702V19.271c-2.223-0.597-4.426-1.243-6.609-1.931c-4.355-1.177-7.115-1.392-9.078-1.369
		c-15.695,0.192-28.422,12.87-28.422,28.742c0,15.873,9.729,35.059,32.994,28.637c0.066-0.019,0.141-0.038,0.213-0.056
		c3.578-1.307,7.213-2.492,10.902-3.548V62.18C60.75,65.09,57.492,66.879,53.906,66.879z"/>
	<path fill="#FFFFFF" d="M106.309,36.252V26.123c-6.063-0.36-14.25-1.835-19.59,6.641c-0.215-3.414,0.488-7.221,0.855-8.932
		c-4.627-0.499-9.199-1.193-13.705-2.078v45.322c5.123-1.091,10.332-1.941,15.623-2.533c-2.668-2.771-4.486-6.334-4.486-10.51
		C85.006,44.529,93.025,34.814,106.309,36.252z"/>
	<path fill="#FFFFFF" d="M160.506,14.95c-4.201,1.543-8.486,2.915-12.84,4.11l-0.389,12.718c4.172-11.67,17.877-9.582,17.877-9.582
		l-0.84,12.542c0,0-16.256-0.499-17.859,15.778c-1.695,17.176,10.994,20.871,10.994,20.871l-0.105-0.002
		c1.191,0.387,2.377,0.787,3.553,1.199c0.17,0.029,0.326,0.058,0.459,0.087c21.518,4.71,30.23-13.729,30.23-29.956
		C191.586,26.695,179.756,9.221,160.506,14.95z"/>
	<path fill="#FFFFFF" d="M118.934,24.176c5.273,3.525,5.611,12.126,5.611,20.507c0,8.41,0.059,13.622,0.068,19.749
		c3.57,0.377,7.104,0.87,10.602,1.475V21.943C129.877,22.956,124.445,23.704,118.934,24.176z"/>
</g>
</svg>
