<?xml version="1.0" encoding="utf-8"?>
<!-- Generator: Adobe Illustrator 16.0.0, SVG Export Plug-In . SVG Version: 6.00 Build 0)  -->
<!DOCTYPE svg PUBLIC "-//W3C//DTD SVG 1.1//EN" "http://www.w3.org/Graphics/SVG/1.1/DTD/svg11.dtd">
<svg version="1.1" id="Layer_1" xmlns="http://www.w3.org/2000/svg" xmlns:xlink="http://www.w3.org/1999/xlink" x="0px" y="0px"
	 width="1258px" height="475.418px" viewBox="0 0 1258 475.418" enable-background="new 0 0 1258 475.418" xml:space="preserve">
<path fill="#FFFFFF" d="M230.382,471.323c-11.979-0.205-22.998-4.131-29.479-9.738c-7.176-6.223-10.259-17.256-9.146-32.82
	l0.588-3.271L315.383,4.684c0,0,33.848-3.832,45.679,1.619c11.83,5.453,28.011,15.313,16.579,53.395l-87.447,286.418L550.76,12.527
	C562.484,0.41,585.718,0.006,588.322,0c17.678-0.037,27.919,4.447,34.76,7c6.84,2.553,13.218,5.513,13.218,5.513L275.667,471.379
	C275.667,471.379,242.361,471.53,230.382,471.323z M564.223,32.582L564.223,32.582L564.223,32.582z"/>
<path fill="#FFFFFF" d="M447.144,475.418c-10.565,0-18.782-0.711-25.141-2.158l-9.972-2.207l115.149-354.486l11.873-2.395
	c7.494-1.518,16.336-2.264,27.061-2.274c10.514-0.021,19.231,0.714,25.921,2.168l10.465,2.269L485.918,470.942l-11.925,2.35
	C466.437,474.721,457.646,475.418,447.144,475.418z"/>
<g>
	<path fill="#FFFFFF" d="M834.621,474.702c-23.435,0-33.912-2.117-33.912-2.117l123.14-358.527c0,0,63.592-7.786,96.042,11.587
		c32.448,19.367,47.113,52.9,48.69,90.179c1.87,44.098-33.257,59.043-26.299,114.125l0,0
		c7.213,43.725,18.791,109.225,18.914,109.854l5.861,33.158c0,0-10.492,2.002-30.684,2.002s-32.125-3.752-32.125-3.752
		s-36.26-158.732-48.891-200.084l-82.406,201.49C872.953,472.616,858.056,474.702,834.621,474.702z"/>
</g>
<path fill="#FFFFFF" d="M660.074,111.959L555.578,425.377c-4.474,13.484-4.439,24.566,0.12,32.762
	c4.624,8.334,13.354,12.82,25.287,12.82H712.35c23.793,0,44.041-12.961,55.339-34.986c2.996-5.463,6.039-12.828,9.328-22.406
	l4.978-14.494l-128.648,0.033c-5.309,0-10.506,0.111-15.542,0.35l24.209-71.512L770,327.954c0,0,11.056-13.596,17.778-35.377
	c6.722-21.783,6.809-35.996,6.809-35.996l-108.696,0.336l24.962-72.957h97.506c23.794,0,44.041-13.399,55.339-35.426
	c2.997-5.463,6.04-13.05,9.329-22.629l4.753-13.945L660.074,111.959L660.074,111.959z"/>
</svg>
