<?xml version="1.0" encoding="utf-8"?>
<!-- Generator: Adobe Illustrator 16.0.0, SVG Export Plug-In . SVG Version: 6.00 Build 0)  -->
<!DOCTYPE svg PUBLIC "-//W3C//DTD SVG 1.1//EN" "http://www.w3.org/Graphics/SVG/1.1/DTD/svg11.dtd">
<svg version="1.1" id="Layer_1" xmlns="http://www.w3.org/2000/svg" xmlns:xlink="http://www.w3.org/1999/xlink" x="0px" y="0px"
	 width="1258px" height="475.419px" viewBox="0 0 1258 475.419" enable-background="new 0 0 1258 475.419" xml:space="preserve">
<path d="M230.382,471.322c-11.979-0.205-22.998-4.131-29.479-9.737c-7.176-6.224-10.259-17.257-9.146-32.821l0.588-3.272
	L315.383,4.684c0,0,33.848-3.832,45.679,1.619c11.83,5.453,28.011,15.313,16.579,53.394l-87.447,286.419L550.76,12.527
	C562.484,0.41,585.718,0.006,588.322,0c17.678-0.037,27.919,4.447,34.76,7c6.84,2.553,13.218,5.513,13.218,5.513L275.667,471.379
	C275.667,471.379,242.361,471.529,230.382,471.322z M564.223,32.582L564.223,32.582L564.223,32.582z"/>
<path d="M447.144,475.419c-10.566,0-18.783-0.711-25.141-2.159l-9.972-2.207l115.15-354.486l11.873-2.395
	c7.494-1.518,16.336-2.264,27.06-2.274c10.514-0.021,19.232,0.714,25.921,2.168l10.465,2.269L485.918,470.941l-11.925,2.35
	C466.436,474.722,457.646,475.419,447.144,475.419z"/>
<g>
	<path d="M834.621,474.702c-23.435,0-33.912-2.118-33.912-2.118l123.14-358.527c0,0,63.591-7.786,96.042,11.587
		c32.448,19.367,47.113,52.9,48.69,90.179c1.87,44.098-33.257,59.043-26.299,114.125l0,0
		c7.213,43.725,18.791,109.225,18.914,109.853l5.862,33.159c0,0-10.493,2.001-30.684,2.001s-32.125-3.751-32.125-3.751
		s-36.26-158.733-48.891-200.084l-82.406,201.49C872.953,472.615,858.056,474.702,834.621,474.702z"/>
</g>
<path d="M660.074,111.959L555.578,425.377c-4.474,13.485-4.439,24.566,0.12,32.763c4.624,8.334,13.354,12.819,25.287,12.819H712.35
	c23.793,0,44.041-12.96,55.338-34.986c2.997-5.463,6.04-12.828,9.329-22.407l4.977-14.493l-128.648,0.033
	c-5.309,0-10.506,0.111-15.542,0.35l24.209-71.513l107.987,0.011c0,0,11.056-13.596,17.778-35.378s6.809-35.995,6.809-35.995
	l-108.696,0.335l24.962-72.956h97.506c23.793,0,44.041-13.399,55.338-35.426c2.997-5.463,6.04-13.05,9.329-22.629l4.753-13.945
	H660.074z"/>
</svg>
