<?xml version="1.0" encoding="utf-8"?>
<!-- Generator: Adobe Illustrator 16.0.0, SVG Export Plug-In . SVG Version: 6.00 Build 0)  -->
<!DOCTYPE svg PUBLIC "-//W3C//DTD SVG 1.1//EN" "http://www.w3.org/Graphics/SVG/1.1/DTD/svg11.dtd">
<svg version="1.1" id="Layer_1" xmlns="http://www.w3.org/2000/svg" xmlns:xlink="http://www.w3.org/1999/xlink" x="0px" y="0px"
	 width="1258px" height="471.439px" viewBox="0 0 1258 471.439" enable-background="new 0 0 1258 471.439" xml:space="preserve">
<path fill="#D0C5FF" d="M275.667,0.438l53.978,458.488c0,0-8.352,2.961-16.893,5.514c-8.543,2.553-21.773,7.037-39.427,7
	c-2.601-0.006-25.564-0.41-29.211-12.527l-38.181-333.588L102.44,411.742c-13.956,38.082-36.708,47.941-52.175,53.395
	c-15.465,5.451-46.758,1.619-46.758,1.619L161,45.947l1.594-3.271c9.264-15.564,19.703-26.598,31.027-32.822
	c10.219-5.605,23.221-9.586,35.338-9.791C241.076-0.145,275.667,0.438,275.667,0.438z M270.946,438.857L270.946,438.857
	L270.946,438.857z"/>
<path fill="#D0C5FF" d="M485.918,0L365.014,354.75l-11.978,2.269c-7.657,1.454-16.865,2.188-27.365,2.168
	c-10.717-0.011-19.061-0.757-25.544-2.274l-10.276-2.395L412.031,0.111L485.918,0z"/>
<g>
	<path fill="#D0C5FF" d="M872.953,1.674l-54.512,208.199C858.639,168.523,1004.25,0.268,1004.25,0.268l62.809,1.75l-27.666,33.201
		c-0.543,0.627-58.453,72.128-94.814,115.853l0,0c-43.679,55.082-18.516,70.028-49.783,114.126
		c-26.428,37.277-61.115,62.812-106.475,82.179c-45.365,19.373-103.766,11.565-103.766,11.565L800.709,1.643L872.953,1.674z"/>
</g>
<path fill="#D0C5FF" d="M419.743,359.018l104.43-313.271c4.517-13.485,11.945-24.64,21.969-32.836
	c10.18-8.334,21.907-12.893,33.841-12.893h131.363c23.793,0,35.387,13.106,32,35.133c-0.645,5.463-2.519,12.901-5.615,22.48
	l-4.689,14.529l-128.627-0.015c-5.309,0-10.434-0.103-15.311-0.341l-23.465,71.518l107.993-0.008c0,0,1.992,13.597-5.806,35.379
	c-7.799,21.782-17.188,35.996-17.188,35.996l-108.459-0.481l-23.66,72.81h97.506c23.793,0,35.094,13.546,31.707,35.572
	c-0.645,5.463-2.652,12.977-5.75,22.556l-4.536,13.872H419.743z"/>
</svg>
